<?xml version="1.0" encoding="UTF-8" standalone="no"?>
<svg
   xmlns:dc="http://purl.org/dc/elements/1.1/"
   xmlns:cc="http://creativecommons.org/ns#"
   xmlns:rdf="http://www.w3.org/1999/02/22-rdf-syntax-ns#"
   xmlns:svg="http://www.w3.org/2000/svg"
   xmlns="http://www.w3.org/2000/svg"
   xmlns:sodipodi="http://sodipodi.sourceforge.net/DTD/sodipodi-0.dtd"
   xmlns:inkscape="http://www.inkscape.org/namespaces/inkscape"
   width="86.143959mm"
   height="107.36308mm"
   viewBox="0 0 86.143959 107.36308"
   version="1.1"
   id="svg6173"
   inkscape:version="1.0.1 (c497b03c, 2020-09-10)"
   sodipodi:docname="HeroGraphicLEFT.svg">
  <defs
     id="defs6167" />
  <sodipodi:namedview
     id="base"
     pagecolor="#ffffff"
     bordercolor="#666666"
     borderopacity="1.0"
     inkscape:pageopacity="0.0"
     inkscape:pageshadow="2"
     inkscape:zoom="0.35"
     inkscape:cx="94.220297"
     inkscape:cy="268.60513"
     inkscape:document-units="mm"
     inkscape:current-layer="layer1"
     inkscape:document-rotation="0"
     showgrid="false"
     fit-margin-top="0"
     fit-margin-left="0"
     fit-margin-right="0"
     fit-margin-bottom="0"
     inkscape:window-width="1252"
     inkscape:window-height="855"
     inkscape:window-x="1894"
     inkscape:window-y="55"
     inkscape:window-maximized="0" />
  <metadata
     id="metadata6170">
    <rdf:RDF>
      <cc:Work
         rdf:about="">
        <dc:format>image/svg+xml</dc:format>
        <dc:type
           rdf:resource="http://purl.org/dc/dcmitype/StillImage" />
        <dc:title></dc:title>
      </cc:Work>
    </rdf:RDF>
  </metadata>
  <g
     inkscape:label="Layer 1"
     inkscape:groupmode="layer"
     id="layer1"
     transform="translate(-80.904213,-77.098227)">
    <path
       style="fill:#e3d900;fill-opacity:0.494118;stroke-width:0.0856932"
       d="m 121.07974,184.4613 c -7.84218,-7.66897 -7.9775,-19.78708 -0.30852,-27.62928 l 13.9689,13.66036 z"
       id="path1248-8-3-8-5" />
    <path
       style="fill:#02babc;fill-opacity:1;stroke-width:0.0833633"
       d="m 121.37144,103.67613 c -7.46045,-7.628964 -19.24911,-7.760611 -26.878093,-0.30014 l 13.288963,13.58912 z"
       id="path1248-8-1-9" />
    <path
       style="fill:#6ac4ff;fill-opacity:0.512195;stroke-width:0.0833633"
       d="m 161.53849,143.54306 c -7.46047,7.62897 -19.24911,7.76061 -26.87809,0.30014 l 13.28896,-13.58912 z"
       id="path1248-8-3-9-1" />
    <path
       style="fill:#0a7983;fill-opacity:1;stroke-width:0.0833633"
       d="m 134.36026,116.96511 c 7.62897,7.46047 7.76061,19.24911 0.30014,26.87809 l -13.58912,-13.28896 z"
       id="path1248-8-9-3-4-1" />
    <path
       style="fill:#e2d800;fill-opacity:1;stroke-width:0.0833633"
       d="m 121.07135,103.97633 c 7.62897,-7.46046 7.76061,-19.249123 0.30014,-26.878103 l -13.58912,13.288962 z"
       id="path1248-8-0-6-0-7" />
    <path
       style="fill:#e2d800;fill-opacity:0.495935;stroke-width:0.0833633"
       d="m 80.904213,116.66497 c 7.460454,7.62896 19.249107,7.76061 26.878097,0.30014 L 94.493347,103.37599 Z"
       id="path1248-8-0-3-75-8" />
    <path
       style="fill:#0a7983;fill-opacity:1;stroke-width:0.0833633"
       d="m 161.2384,143.2429 c 7.62897,7.46047 7.76061,19.24911 0.30014,26.87809 l -13.58911,-13.28896 z"
       id="path1248-8-4-4-1-6" />
    <path
       style="fill:#02babc;fill-opacity:1;stroke-width:0.0833633"
       d="m 134.06012,90.087015 c 7.62897,7.46047 7.76062,19.249105 0.30014,26.878095 l -13.58912,-13.28896 z"
       id="path1248-8-4-1-8-6" />
    <path
       style="fill:#02babc;fill-opacity:1;stroke-width:0.0833633"
       d="m 121.37142,157.43233 c -7.62897,-7.46047 -7.76061,-19.24911 -0.30014,-26.87809 l 13.58912,13.28896 z"
       id="path1248-8-4-4-5-4" />
    <path
       style="fill:#6ac4ff;fill-opacity:1;stroke-width:0.0833633"
       d="m 161.53854,170.12099 c -7.46047,7.62897 -19.24911,7.76061 -26.87809,0.30014 l 13.28896,-13.58912 z"
       id="path1248-8-4-14-2-7" />
    <path
       style="fill:#e2d800;fill-opacity:0.495935;stroke-width:0.0833633"
       d="m 120.77114,157.43234 c 7.62897,-7.46046 7.76062,-19.24912 0.30014,-26.8781 l -13.58911,13.28896 z"
       id="path1248-8-0-3-75-6-9" />
    <path
       style="fill:#0a7983;fill-opacity:1;stroke-width:0.0833633"
       d="m 120.77122,156.83202 c -7.46048,7.62897 -19.24911,7.76061 -26.878093,0.30014 l 13.288963,-13.58912 z"
       id="path1248-8-4-1-89-0" />
    <path
       style="fill:#6ac4ff;fill-opacity:1;stroke-width:0.0833633"
       d="m 121.07128,130.55423 c -7.62897,-7.46046 -7.76061,-19.2491 -0.30014,-26.87808 l 13.58912,13.28896 z"
       id="path1248-8-4-2-4-1" />
    <path
       style="fill:#6ac4ff;fill-opacity:0.512195;stroke-width:0.0833633"
       d="m 108.08246,117.26526 c -7.62896,-7.46047 -7.76061,-19.24911 -0.30013,-26.878091 l 13.58911,13.288961 z"
       id="path1248-8-3-8-5-6-6" />
    <path
       style="fill:#e2d800;fill-opacity:1;stroke-width:0.0833633"
       d="m 107.78231,116.96511 c -7.62897,7.46045 -7.76061,19.24911 -0.30014,26.87809 l 13.58909,-13.28896 z"
       id="path1248-8-0-8-0-1" />
    <path
       style="fill:#e2d800;fill-opacity:1;stroke-width:0.0833633"
       d="m 134.36027,170.7213 c 7.62895,-7.46046 7.76061,-19.24912 0.30013,-26.8781 l -13.58908,13.28896 z"
       id="path1248-8-0-8-9-7-5-4-1" />
    <path
       style="fill:#02babc;fill-opacity:1;stroke-width:0.0833633"
       d="m 93.893109,157.13216 c -7.628966,-7.46046 -7.760613,-19.2491 -0.300138,-26.87808 l 13.589119,13.28896 z"
       id="path1248-8-4-1-0-8" />
  </g>
</svg>
