<?xml version="1.0" encoding="UTF-8" standalone="no"?>
<svg
   xmlns:dc="http://purl.org/dc/elements/1.1/"
   xmlns:cc="http://creativecommons.org/ns#"
   xmlns:rdf="http://www.w3.org/1999/02/22-rdf-syntax-ns#"
   xmlns:svg="http://www.w3.org/2000/svg"
   xmlns="http://www.w3.org/2000/svg"
   xmlns:sodipodi="http://sodipodi.sourceforge.net/DTD/sodipodi-0.dtd"
   xmlns:inkscape="http://www.inkscape.org/namespaces/inkscape"
   width="86.14386mm"
   height="107.51238mm"
   viewBox="0 0 86.14386 107.51238"
   version="1.1"
   id="svg5604"
   inkscape:version="1.0.1 (c497b03c, 2020-09-10)"
   sodipodi:docname="HeroGraphicRIGHT.svg">
  <defs
     id="defs5598" />
  <sodipodi:namedview
     id="base"
     pagecolor="#ffffff"
     bordercolor="#666666"
     borderopacity="1.0"
     inkscape:pageopacity="0.0"
     inkscape:pageshadow="2"
     inkscape:zoom="0.35"
     inkscape:cx="77.077256"
     inkscape:cy="274.60157"
     inkscape:document-units="mm"
     inkscape:current-layer="layer1"
     inkscape:document-rotation="0"
     showgrid="false"
     fit-margin-top="0"
     fit-margin-left="0"
     fit-margin-right="0"
     fit-margin-bottom="0"
     inkscape:window-width="1252"
     inkscape:window-height="855"
     inkscape:window-x="2000"
     inkscape:window-y="55"
     inkscape:window-maximized="0" />
  <metadata
     id="metadata5601">
    <rdf:RDF>
      <cc:Work
         rdf:about="">
        <dc:format>image/svg+xml</dc:format>
        <dc:type
           rdf:resource="http://purl.org/dc/dcmitype/StillImage" />
        <dc:title></dc:title>
      </cc:Work>
    </rdf:RDF>
  </metadata>
  <g
     inkscape:label="Layer 1"
     inkscape:groupmode="layer"
     id="layer1"
     transform="translate(-85.439976,-75.511667)">
    <path
       style="fill:#e2d800;fill-opacity:1;stroke-width:0.0833633"
       d="m 139.49634,75.511667 c -7.62897,7.460456 -7.76061,19.249117 -0.30015,26.878103 l 13.5891,-13.288969 z"
       id="path1248-8-0-0-4" />
    <path
       style="fill:#6ac4ff;fill-opacity:0.512195;stroke-width:0.0833633"
       d="m 139.49634,129.26786 c -7.62897,-7.46045 -7.76061,-19.24912 -0.30015,-26.87809 l 13.5891,13.28896 z"
       id="path1248-8-3-0-7-2" />
    <path
       style="fill:#0a7983;fill-opacity:1;stroke-width:0.0833633"
       d="m 139.19619,155.54567 c -7.46049,7.62896 -19.24912,7.76061 -26.8781,0.30014 l 13.28895,-13.58912 z"
       id="path1248-8-9-0-06-4" />
    <path
       style="fill:#0a7983;fill-opacity:1;stroke-width:0.0819772"
       d="m 165.92249,128.9748 c -7.37713,7.46071 -19.0341,7.58945 -26.5779,0.29352 l 13.14057,-13.28942 z"
       id="path1248-8-9-0-0-4-5" />
    <path
       style="fill:#e2d800;fill-opacity:0.50813;stroke-width:0.0833633"
       d="m 139.49634,129.26786 c -7.46046,-7.62896 -19.24911,-7.76061 -26.8781,-0.30013 l 13.28895,13.58911 z"
       id="path1248-8-0-3-9-7-3" />
    <path
       style="fill:#02babc;fill-opacity:1;stroke-width:0.0833633"
       d="m 152.48516,115.9789 c 7.62895,-7.46046 7.76057,-19.249117 0.30013,-26.878099 l -13.58912,13.288969 z"
       id="path1248-8-0-3-9-3-8-0" />
    <path
       style="fill:#e2d800;fill-opacity:1;stroke-width:0.0833633"
       d="m 112.61823,128.96771 c -7.62897,7.46045 -7.76061,19.24911 -0.30014,26.8781 l 13.5891,-13.28897 z"
       id="path1248-8-0-7-4-1" />
    <path
       style="fill:#6ac4ff;fill-opacity:0.81;stroke-width:0.0833633"
       d="m 139.49629,183.02405 c -7.62897,-7.46046 -7.76061,-19.24912 -0.30014,-26.8781 l 13.58912,13.28897 z"
       id="path1248-8-5-0-9" />
    <path
       style="fill:#02babc;fill-opacity:1;stroke-width:0.0833633"
       d="m 166.37437,129.56799 c -7.46043,-7.62894 -19.24904,-7.76058 -26.87803,-0.30012 l 13.28896,13.58911 z"
       id="path1248-8-9-5-9-2-9" />
    <path
       style="fill:#e2d800;fill-opacity:0.5;stroke-width:0.0833633"
       d="m 152.7853,142.85698 c -7.46047,-7.62896 -19.24914,-7.7606 -26.87811,-0.30014 l 13.28895,13.58912 z"
       id="path1248-8-0-3-7-0-4" />
    <path
       style="fill:#0a7983;fill-opacity:1;stroke-width:0.0833633"
       d="m 165.77404,128.9677 c 7.62901,7.46047 7.76064,19.24911 0.30015,26.8781 l -13.58908,-13.28897 z"
       id="path1248-8-9-7-4-3" />
    <path
       style="fill:#e2d800;fill-opacity:1;stroke-width:0.0833633"
       d="m 85.439976,155.54566 c 7.46046,7.62897 19.249114,7.76061 26.878114,0.30015 l -13.288964,-13.5891 z"
       id="path1248-8-0-8-9-8" />
    <path
       style="fill:#6ac4ff;fill-opacity:0.699187;stroke-width:0.0833633"
       d="m 125.90719,142.55684 c 7.46047,7.62897 19.24911,7.76062 26.87809,0.30014 l -13.28896,-13.58912 z"
       id="path1248-8-4-2-9-2" />
    <path
       style="fill:#02babc;fill-opacity:1;stroke-width:0.0833633"
       d="m 112.01795,182.7239 c 7.62897,-7.46047 7.76061,-19.24911 0.30014,-26.87809 l -13.589124,13.28896 z"
       id="path1248-8-4-1-3-0" />
    <path
       style="fill:#02babc;fill-opacity:0.674797;stroke-width:0.0833633"
       d="m 152.48511,142.55683 c 7.62898,7.46047 7.76063,19.24911 0.30016,26.87809 l -13.58913,-13.28896 z"
       id="path1248-8-4-1-8-3-8" />
  </g>
</svg>
